<?xml version="1.0" standalone="no"?>
<!DOCTYPE svg PUBLIC "-//W3C//DTD SVG 20010904//EN"
 "http://www.w3.org/TR/2001/REC-SVG-20010904/DTD/svg10.dtd">
<svg version="1.0" xmlns="http://www.w3.org/2000/svg"
 width="600.000000pt" height="600.000000pt" viewBox="0 0 600.000000 600.000000"
 preserveAspectRatio="xMidYMid meet">
<metadata>
Created by potrace 1.16, written by Peter Selinger 2001-2019
</metadata>
<g transform="translate(0.000000,600.000000) scale(0.100000,-0.100000)"
fill="#4caf50" stroke="none">
<path d="M2633 5984 c-1401 -169 -2499 -1306 -2624 -2715 -16 -184 -6 -535 19
-704 83 -537 292 -1018 624 -1437 102 -130 343 -371 469 -471 437 -345 915
-549 1484 -633 170 -26 620 -26 790 0 431 63 789 188 1147 399 494 292 927
767 1171 1287 191 408 273 757 284 1212 9 385 -29 667 -133 990 -151 469 -395
869 -739 1213 -484 485 -1094 781 -1775 860 -157 19 -562 18 -717 -1z m487
-634 c1036 -159 1864 -924 2100 -1940 23 -99 60 -329 60 -372 0 -4 59 -8 130
-8 149 0 136 13 120 -120 -55 -452 -345 -828 -782 -1016 -525 -226 -1152 -101
-1544 308 -132 137 -225 290 -284 466 -30 89 -60 247 -60 315 l0 37 -363 0
-364 0 4 -77 c42 -804 612 -1486 1411 -1687 175 -45 316 -59 527 -53 110 3
228 12 280 22 196 35 439 120 582 202 42 23 78 43 80 43 2 0 -28 -36 -67 -81
-295 -335 -705 -586 -1135 -694 -219 -56 -334 -70 -570 -69 -370 1 -670 67
-990 219 -453 214 -850 605 -1052 1035 -151 320 -215 604 -216 953 l0 187
-253 0 -252 0 5 63 c23 308 147 574 369 793 416 411 1064 509 1599 241 303
-151 543 -422 645 -727 30 -90 60 -241 60 -306 l0 -54 340 0 c265 0 340 3 340
13 -1 35 -31 223 -49 297 -153 655 -684 1191 -1346 1359 -315 80 -615 76 -985
-14 -66 -16 170 92 284 131 208 69 349 94 566 101 272 8 485 -25 730 -112 716
-254 1229 -907 1304 -1660 l11 -110 233 -3 c182 -2 232 0 232 10 0 7 -5 63
-10 123 -42 451 -211 863 -500 1221 -97 120 -156 180 -278 285 -371 319 -797
512 -1292 585 -203 30 -597 24 -790 -12 l-25 -4 25 10 c90 39 376 101 555 119
139 15 458 5 615 -19z"/>
</g>
</svg>
